<svg width="29" height="29" viewBox="0 0 29 29" fill="none" xmlns="http://www.w3.org/2000/svg">
<path d="M21.4237 12.0488H15.2987C14.8204 12.0488 14.4237 11.6522 14.4237 11.1738C14.4237 10.6955 14.8204 10.2988 15.2987 10.2988H21.4237C21.902 10.2988 22.2987 10.6955 22.2987 11.1738C22.2987 11.6522 21.9137 12.0488 21.4237 12.0488Z" fill="#333845"/>
<path d="M9.17299 12.9346C8.95132 12.9346 8.72965 12.853 8.55465 12.678L7.67965 11.8029C7.34132 11.4646 7.34132 10.9046 7.67965 10.5662C8.01799 10.2279 8.57799 10.2279 8.91632 10.5662L9.17299 10.8229L11.1797 8.81625C11.518 8.47792 12.078 8.47792 12.4163 8.81625C12.7547 9.15458 12.7547 9.71458 12.4163 10.0529L9.79132 12.678C9.62799 12.8413 9.40632 12.9346 9.17299 12.9346Z" fill="#333845"/>
<path d="M21.4237 20.2148H15.2987C14.8204 20.2148 14.4237 19.8182 14.4237 19.3398C14.4237 18.8615 14.8204 18.4648 15.2987 18.4648H21.4237C21.902 18.4648 22.2987 18.8615 22.2987 19.3398C22.2987 19.8182 21.9137 20.2148 21.4237 20.2148Z" fill="#333845"/>
<path d="M9.17299 21.1026C8.95132 21.1026 8.72965 21.0209 8.55465 20.8459L7.67965 19.9709C7.34132 19.6326 7.34132 19.0726 7.67965 18.7342C8.01799 18.3959 8.57799 18.3959 8.91632 18.7342L9.17299 18.9909L11.1797 16.9842C11.518 16.6459 12.078 16.6459 12.4163 16.9842C12.7547 17.3226 12.7547 17.8826 12.4163 18.2209L9.79132 20.8459C9.62799 21.0092 9.40632 21.1026 9.17299 21.1026Z" fill="#333845"/>
<path d="M18.3669 27.3665H11.3669C5.03186 27.3665 2.3252 24.6599 2.3252 18.3249V11.3249C2.3252 4.98987 5.03186 2.2832 11.3669 2.2832H18.3669C24.7019 2.2832 27.4085 4.98987 27.4085 11.3249V18.3249C27.4085 24.6599 24.7019 27.3665 18.3669 27.3665ZM11.3669 4.0332C5.98853 4.0332 4.0752 5.94654 4.0752 11.3249V18.3249C4.0752 23.7032 5.98853 25.6165 11.3669 25.6165H18.3669C23.7452 25.6165 25.6585 23.7032 25.6585 18.3249V11.3249C25.6585 5.94654 23.7452 4.0332 18.3669 4.0332H11.3669Z" fill="#333845"/>
</svg>
