<svg width="25" height="25" viewBox="0 0 25 25" fill="none" xmlns="http://www.w3.org/2000/svg">
<g clip-path="url(#clip0_1_10485)">
<path d="M20.0868 2.74079H17.0603C16.8934 2.18037 16.5496 1.68845 16.08 1.33795C15.6104 0.987454 15.04 0.797036 14.4532 0.794922H10.547C9.96025 0.797036 9.3898 0.987454 8.92021 1.33795C8.45062 1.68845 8.10689 2.18037 7.93997 2.74079H4.9134C4.43931 2.7414 3.98482 2.92931 3.64958 3.2633C3.31435 3.59728 3.12574 4.05009 3.12512 4.52242V22.3637C3.12574 22.836 3.31435 23.2888 3.64958 23.6228C3.98482 23.9568 4.43931 24.1447 4.9134 24.1453H20.0868C20.5609 24.1447 21.0154 23.9568 21.3507 23.6228C21.6859 23.2888 21.8745 22.836 21.8751 22.3637V4.52242C21.8745 4.05009 21.6859 3.59728 21.3507 3.2633C21.0154 2.92931 20.5609 2.7414 20.0868 2.74079ZM10.547 2.35161H14.4532C14.764 2.35161 15.0621 2.47462 15.2819 2.69357C15.5017 2.91252 15.6251 3.20949 15.6251 3.51913C15.6251 3.82878 15.5017 4.12574 15.2819 4.34469C15.0621 4.56364 14.764 4.68665 14.4532 4.68665H10.547C10.2362 4.68665 9.93813 4.56364 9.71836 4.34469C9.49859 4.12574 9.37512 3.82878 9.37512 3.51913C9.37512 3.20949 9.49859 2.91252 9.71836 2.69357C9.93813 2.47462 10.2362 2.35161 10.547 2.35161ZM20.3126 22.3637C20.3124 22.4233 20.2886 22.4804 20.2463 22.5225C20.204 22.5646 20.1467 22.5884 20.0868 22.5886H4.9134C4.85359 22.5884 4.79628 22.5646 4.75398 22.5225C4.71168 22.4804 4.68783 22.4233 4.68762 22.3637V4.52242C4.68783 4.46282 4.71168 4.40573 4.75398 4.36359C4.79628 4.32145 4.85359 4.29768 4.9134 4.29748H7.93997C8.10689 4.8579 8.45062 5.34982 8.92021 5.70031C9.3898 6.05081 9.96025 6.24123 10.547 6.24334H14.4532C15.04 6.24123 15.6104 6.05081 16.08 5.70031C16.5496 5.34982 16.8934 4.8579 17.0603 4.29748H20.0868C20.1467 4.29768 20.204 4.32145 20.2463 4.36359C20.2886 4.40573 20.3124 4.46282 20.3126 4.52242V22.3637Z" fill="#333845"/>
<path d="M17.1876 17.1406H7.81262C7.60542 17.1406 7.40671 17.2226 7.2602 17.3686C7.11368 17.5146 7.03137 17.7125 7.03137 17.919C7.03137 18.1254 7.11368 18.3234 7.2602 18.4693C7.40671 18.6153 7.60542 18.6973 7.81262 18.6973H17.1876C17.3948 18.6973 17.5935 18.6153 17.74 18.4693C17.8866 18.3234 17.9689 18.1254 17.9689 17.919C17.9689 17.7125 17.8866 17.5146 17.74 17.3686C17.5935 17.2226 17.3948 17.1406 17.1876 17.1406Z" fill="#333845"/>
<path d="M17.1876 13.248H7.81262C7.60542 13.248 7.40671 13.3301 7.2602 13.476C7.11368 13.622 7.03137 13.82 7.03137 14.0264C7.03137 14.2328 7.11368 14.4308 7.2602 14.5768C7.40671 14.7227 7.60542 14.8047 7.81262 14.8047H17.1876C17.3948 14.8047 17.5935 14.7227 17.74 14.5768C17.8866 14.4308 17.9689 14.2328 17.9689 14.0264C17.9689 13.82 17.8866 13.622 17.74 13.476C17.5935 13.3301 17.3948 13.248 17.1876 13.248Z" fill="#333845"/>
<path d="M17.1876 9.35742H7.81262C7.60542 9.35742 7.40671 9.43943 7.2602 9.58539C7.11368 9.73136 7.03137 9.92934 7.03137 10.1358C7.03137 10.3422 7.11368 10.5402 7.2602 10.6861C7.40671 10.8321 7.60542 10.9141 7.81262 10.9141H17.1876C17.3948 10.9141 17.5935 10.8321 17.74 10.6861C17.8866 10.5402 17.9689 10.3422 17.9689 10.1358C17.9689 9.92934 17.8866 9.73136 17.74 9.58539C17.5935 9.43943 17.3948 9.35742 17.1876 9.35742Z" fill="#333845"/>
</g>
<defs>
<clipPath id="clip0_1_10485">
<rect width="25" height="24.9071" fill="white" transform="translate(0.00012207 0.015625)"/>
</clipPath>
</defs>
</svg>
