<svg width="25" height="26" viewBox="0 0 25 26" fill="none" xmlns="http://www.w3.org/2000/svg">
<path d="M0.78125 1.01367V24.364H24.2188V1.01367H0.78125ZM13.3977 2.57036L11.4445 4.12705H2.34375V2.57036H13.3977ZM22.6562 22.8074H2.34375V5.68375H11.993L15.8992 2.57036H22.6562V22.8074Z" fill="#333845"/>
<path d="M16.4062 10.3536V19.6938H14.8438V7.24023H10.1562V19.6938H8.59375V14.2453H3.90625V19.6938H3.125V21.2505H21.875V19.6938H21.0938V10.3536H16.4062ZM5.46875 19.6938V15.802H7.03125V19.6938H5.46875ZM11.7188 19.6938V8.79693H13.2812V19.6938H11.7188ZM17.9688 19.6938V11.9103H19.5312V19.6938H17.9688Z" fill="#333845"/>
</svg>
