<svg width="23" height="24" viewBox="0 0 23 24" fill="none" xmlns="http://www.w3.org/2000/svg">
<path d="M20.0883 22.431H2.91166C2.33029 22.4302 1.77296 22.1998 1.36188 21.7902C0.950793 21.3807 0.719511 20.8254 0.71875 20.2462V9.58167C0.719039 9.2339 0.802514 8.89122 0.962258 8.58201C1.122 8.2728 1.35341 8.00598 1.63731 7.80365L10.2257 1.69192C10.5975 1.42737 11.0431 1.28516 11.5 1.28516C11.9569 1.28516 12.4025 1.42737 12.7743 1.69192L21.3627 7.80365C21.6466 8.00598 21.878 8.2728 22.0377 8.58201C22.1975 8.89122 22.281 9.2339 22.2812 9.58167V20.2462C22.2805 20.8254 22.0492 21.3807 21.6381 21.7902C21.227 22.1998 20.6697 22.4302 20.0883 22.431ZM11.5 2.71734C11.3426 2.71731 11.1891 2.76611 11.0608 2.85698L2.4725 8.9687C2.37474 9.03837 2.29505 9.13025 2.24005 9.23672C2.18505 9.3432 2.15633 9.4612 2.15625 9.58095V20.2462C2.15644 20.4458 2.23609 20.6371 2.37771 20.7782C2.51934 20.9193 2.71137 20.9986 2.91166 20.9988H20.0898C20.2898 20.9982 20.4815 20.9187 20.6228 20.7777C20.7641 20.6366 20.8436 20.4455 20.8438 20.2462V9.58167C20.8437 9.46192 20.8149 9.34391 20.7599 9.23744C20.7049 9.13096 20.6253 9.03908 20.5275 8.96942L11.9392 2.85769C11.8111 2.76632 11.6575 2.71723 11.5 2.71734Z" fill="#333845"/>
<path d="M15.0938 18.8499H7.90625C7.71563 18.8499 7.53281 18.7745 7.39802 18.6402C7.26323 18.5059 7.1875 18.3238 7.1875 18.1338V15.9856C7.1875 15.7957 7.26323 15.6136 7.39802 15.4793C7.53281 15.345 7.71563 15.2695 7.90625 15.2695C8.09687 15.2695 8.27969 15.345 8.41448 15.4793C8.54927 15.6136 8.625 15.7957 8.625 15.9856V17.4178H14.375V15.9856C14.375 15.7957 14.4507 15.6136 14.5855 15.4793C14.7203 15.345 14.9031 15.2695 15.0938 15.2695C15.2844 15.2695 15.4672 15.345 15.602 15.4793C15.7368 15.6136 15.8125 15.7957 15.8125 15.9856V18.1338C15.8125 18.3238 15.7368 18.5059 15.602 18.6402C15.4672 18.7745 15.2844 18.8499 15.0938 18.8499Z" fill="#333845"/>
</svg>
