<svg width="29" height="29" viewBox="0 0 29 29" fill="none" xmlns="http://www.w3.org/2000/svg">
<g clip-path="url(#clip0_1_10406)">
<path d="M14.8668 13.1826C16.6761 13.1826 18.1481 11.7106 18.1481 9.90137C18.1481 8.09209 16.6761 6.62012 14.8668 6.62012C13.0575 6.62012 11.5856 8.09209 11.5856 9.90137C11.5856 11.7106 13.0575 13.1826 14.8668 13.1826ZM14.8668 8.80762C15.4699 8.80762 15.9606 9.29827 15.9606 9.90137C15.9606 10.5045 15.4699 10.9951 14.8668 10.9951C14.2637 10.9951 13.7731 10.5045 13.7731 9.90137C13.7731 9.29827 14.2637 8.80762 14.8668 8.80762Z" fill="#333845"/>
<path d="M24.7106 9.90137C24.7106 4.47352 20.2947 0.0576172 14.8668 0.0576172C9.43898 0.0576172 5.02307 4.47352 5.02307 9.90137C5.02307 12.0487 5.7024 14.0894 6.98767 15.8029L12.2408 22.8066C12.8579 23.6291 13.8396 24.1201 14.8668 24.1201C15.8941 24.1201 16.8758 23.6291 17.4929 22.8065L22.746 15.8029C24.0312 14.0894 24.7106 12.0487 24.7106 9.90137ZM20.996 14.4903L15.743 21.4938C15.5337 21.7727 15.2144 21.9326 14.8668 21.9326C14.5192 21.9326 14.1999 21.7727 13.9907 21.4939L8.73761 14.4903C7.73863 13.1584 7.21057 11.5716 7.21057 9.90137C7.21057 5.67971 10.6452 2.24512 14.8668 2.24512C19.0885 2.24512 22.5231 5.67971 22.5231 9.90137C22.5231 11.5716 21.995 13.1584 20.996 14.4903Z" fill="#333845"/>
<path d="M20.3356 26.9639C20.3356 26.3598 19.8459 25.8701 19.2418 25.8701H10.4918C9.88774 25.8701 9.39807 26.3598 9.39807 26.9639C9.39807 27.5679 9.88774 28.0576 10.4918 28.0576H19.2418C19.8459 28.0576 20.3356 27.5679 20.3356 26.9639Z" fill="#333845"/>
</g>
<defs>
<clipPath id="clip0_1_10406">
<rect width="28" height="28" fill="white" transform="translate(0.866821 0.0576172)"/>
</clipPath>
</defs>
</svg>
