<svg width="26" height="26" viewBox="0 0 26 26" fill="none" xmlns="http://www.w3.org/2000/svg">
<g clip-path="url(#clip0_1_10398)">
<path d="M23.6727 3.00977H1.97137C1.06196 3.00977 0.322021 3.74971 0.322021 4.65911V21.1434C0.322021 22.0529 1.06196 22.7928 1.97137 22.7928H23.6727C24.5821 22.7928 25.322 22.0529 25.322 21.1434V4.65911C25.322 3.74971 24.5822 3.00977 23.6727 3.00977ZM1.97137 4.42349H23.6727C23.8004 4.42349 23.9083 4.5314 23.9083 4.65911V15.6366L20.1282 10.7852C19.8477 10.4253 19.4372 10.2096 19.0017 10.1936C18.5664 10.1772 18.1411 10.3624 17.8348 10.7008L12.9302 16.1212C12.8121 16.2516 12.5501 16.2876 12.4011 16.194L8.36837 13.6543C7.67734 13.219 6.66596 13.2639 6.01612 13.7585L1.73574 17.0161V4.65911C1.73574 4.5314 1.84366 4.42349 1.97137 4.42349ZM23.6727 21.379H1.97137C1.84366 21.379 1.73574 21.2711 1.73574 21.1434V18.7927L6.87237 14.8834C7.05078 14.7477 7.4256 14.7311 7.61514 14.8505L11.6478 17.3902C12.3767 17.8492 13.4005 17.7084 13.9785 17.0697L18.8831 11.6493C18.9125 11.6168 18.9335 11.6069 18.9498 11.6062C18.9622 11.6067 18.9861 11.6195 19.013 11.6541L23.9083 17.9365V21.1433C23.9083 21.2711 23.8004 21.379 23.6727 21.379Z" fill="#333845"/>
<path d="M10.7688 12.5808C12.1495 12.5808 13.2726 11.4577 13.2726 10.077C13.2726 8.6964 12.1494 7.57324 10.7688 7.57324C9.38817 7.57324 8.26501 8.69649 8.26501 10.077C8.26501 11.4576 9.38817 12.5808 10.7688 12.5808ZM10.7688 8.98687C11.3699 8.98687 11.8589 9.47583 11.8589 10.0769C11.8589 10.6781 11.3699 11.167 10.7688 11.167C10.1677 11.167 9.67874 10.6781 9.67874 10.0769C9.67874 9.47592 10.1677 8.98687 10.7688 8.98687Z" fill="#333845"/>
</g>
<defs>
<clipPath id="clip0_1_10398">
<rect width="25" height="25" fill="white" transform="translate(0.322021 0.401367)"/>
</clipPath>
</defs>
</svg>
