<svg width="24" height="25" viewBox="0 0 24 25" fill="none" xmlns="http://www.w3.org/2000/svg">
<path d="M12.0001 23.5662C11.8082 23.5662 11.6163 23.4932 11.4698 23.3473L5.44315 17.343C1.82755 13.7408 1.82755 7.88023 5.44315 4.27807C9.05837 0.675538 14.9419 0.675538 18.5572 4.27807C22.1728 7.88023 22.1728 13.7408 18.5572 17.343L12.5305 23.3473C12.3839 23.4932 12.192 23.5662 12.0001 23.5662ZM12.0001 3.07005C10.0097 3.07005 8.01902 3.82496 6.50365 5.3347C3.47327 8.35419 3.47327 13.2669 6.50365 16.2864L12.0001 21.7624L17.4965 16.2864C20.5269 13.2669 20.5269 8.35419 17.4965 5.3347C15.9812 3.82496 13.9904 3.07005 12.0001 3.07005Z" fill="#333845"/>
<path d="M12.0001 14.4936C9.93252 14.4936 8.25012 12.8175 8.25012 10.7575C8.25012 8.69763 9.93252 7.02148 12.0001 7.02148C14.0677 7.02148 15.7501 8.69763 15.7501 10.7575C15.7501 12.8175 14.0677 14.4936 12.0001 14.4936ZM12.0001 8.51591C10.7594 8.51591 9.75012 9.52143 9.75012 10.7575C9.75012 11.9937 10.7594 12.9992 12.0001 12.9992C13.2408 12.9992 14.2501 11.9937 14.2501 10.7575C14.2501 9.52143 13.2408 8.51591 12.0001 8.51591Z" fill="#333845"/>
</svg>
