<svg width="29" height="29" viewBox="0 0 29 29" fill="none" xmlns="http://www.w3.org/2000/svg">
<path d="M21.575 26.8242H7.92505C5.03755 26.8242 2.67505 24.4617 2.67505 21.5742V21.3992L3.20005 7.39922C3.28755 4.51172 5.65005 2.32422 8.45005 2.32422H21.05C23.85 2.32422 26.2125 4.51172 26.3 7.39922L26.825 21.3992C26.9125 22.7992 26.3875 24.1117 25.425 25.1617C24.4625 26.2117 23.15 26.8242 21.75 26.8242C21.75 26.8242 21.6625 26.8242 21.575 26.8242ZM8.45005 4.07422C6.52505 4.07422 5.03755 5.56172 4.95005 7.39922L4.42505 21.5742C4.42505 23.4992 6.00005 25.0742 7.92505 25.0742H21.75C22.7125 25.0742 23.5875 24.6367 24.2 23.9367C24.8125 23.2367 25.1625 22.3617 25.1625 21.3992L24.6375 7.39922C24.55 5.47422 23.0625 4.07422 21.1375 4.07422H8.45005Z" fill="#333845"/>
<path d="M14.75 12.8242C11.3375 12.8242 8.625 10.1117 8.625 6.69922C8.625 6.17422 8.975 5.82422 9.5 5.82422C10.025 5.82422 10.375 6.17422 10.375 6.69922C10.375 9.14922 12.3 11.0742 14.75 11.0742C17.2 11.0742 19.125 9.14922 19.125 6.69922C19.125 6.17422 19.475 5.82422 20 5.82422C20.525 5.82422 20.875 6.17422 20.875 6.69922C20.875 10.1117 18.1625 12.8242 14.75 12.8242Z" fill="#333845"/>
</svg>
