<svg width="29" height="29" viewBox="0 0 29 29" fill="none" xmlns="http://www.w3.org/2000/svg">
<path d="M14.5 1.83008C7.50375 1.83008 1.8125 7.50017 1.8125 14.4704C1.8125 21.4407 7.50375 27.1107 14.5 27.1107C21.4963 27.1107 27.1875 21.4407 27.1875 14.4704C27.1875 7.50017 21.4963 1.83008 14.5 1.83008ZM14.5 25.305C8.50063 25.305 3.625 20.4475 3.625 14.4704C3.625 8.49334 8.50063 3.63584 14.5 3.63584C20.4994 3.63584 25.375 8.49334 25.375 14.4704C25.375 20.4475 20.4994 25.305 14.5 25.305Z" fill="#333845"/>
<path d="M21.0431 12.1418L17.0828 11.573L15.3156 7.99758C15.0075 7.38362 13.9925 7.38362 13.6844 7.99758L11.9172 11.573L7.95685 12.1418C7.62145 12.196 7.33154 12.4307 7.23185 12.7558C7.1231 13.0808 7.21373 13.442 7.45842 13.6857L10.3222 16.4666L9.64248 20.3941C9.5881 20.7282 9.72404 21.0713 10.005 21.279C10.2859 21.4776 10.6575 21.5047 10.9565 21.3422L14.5 19.4913L18.0434 21.3422C18.1703 21.4144 18.3153 21.4505 18.4603 21.4505C18.6506 21.4505 18.8409 21.3873 18.995 21.279C19.2759 21.0713 19.4119 20.7282 19.3575 20.3941L18.6778 16.4666L21.5415 13.6857C21.7862 13.442 21.8769 13.0808 21.7681 12.7558C21.6684 12.4307 21.3784 12.196 21.0431 12.1418ZM17.0737 15.5005C16.8561 15.7082 16.7656 16.0061 16.8109 16.3041L17.255 18.8954L14.9169 17.6674C14.79 17.6042 14.645 17.5681 14.5 17.5681C14.355 17.5681 14.21 17.6042 14.0831 17.6674L11.745 18.8954L12.189 16.3041C12.2344 16.0061 12.1437 15.7082 11.9262 15.5005L10.0412 13.6677L12.6512 13.2885C12.9412 13.2433 13.204 13.0627 13.3309 12.7919L14.5 10.4354L15.669 12.7919C15.7959 13.0627 16.0587 13.2433 16.3487 13.2885L18.9587 13.6677L17.0737 15.5005Z" fill="#333845"/>
</svg>
