<svg width="29" height="29" viewBox="0 0 29 29" fill="none" xmlns="http://www.w3.org/2000/svg">
<g clip-path="url(#clip0_1_10415)">
<path d="M17.5362 1.93945H14.2661V3.98323H16.5143V7.83236C16.5143 11.2131 13.7637 13.9638 10.3829 13.9638C7.00211 13.9638 4.25154 11.2132 4.25154 7.83241V3.98323H6.43161V1.93945H3.22965C2.66522 1.93945 2.20776 2.39691 2.20776 2.96134V7.83241C2.20776 12.3404 5.875 16.0076 10.3829 16.0076C14.8909 16.0076 18.5581 12.3404 18.5581 7.83241V2.96134C18.5581 2.39691 18.1007 1.93945 17.5362 1.93945Z" fill="#333845"/>
<path d="M21.5216 16.8589V21.6959C21.5216 24.5133 19.2295 26.8055 16.4121 26.8055C13.5947 26.8055 11.3026 24.5133 11.3026 21.6959V15.0195H9.25879V21.6959C9.25879 25.6401 12.4675 28.8492 16.4121 28.8492C20.3562 28.8492 23.5654 25.6401 23.5654 21.6959V16.8589H21.5216Z" fill="#333845"/>
<path d="M22.5439 10.252C20.4586 10.252 18.7626 11.948 18.7626 14.033C18.7626 16.1177 20.4586 17.814 22.5436 17.814C24.6286 17.814 26.3247 16.1177 26.325 14.033C26.3249 11.948 24.6286 10.252 22.5439 10.252ZM22.5436 15.7702C21.5854 15.7702 20.806 14.9909 20.806 14.033C20.806 13.0752 21.5854 12.2958 22.5436 12.2958C23.5015 12.2958 24.2808 13.0752 24.2808 14.033C24.2808 14.9909 23.5015 15.7702 22.5436 15.7702Z" fill="#333845"/>
<path d="M6.39762 0.849609C5.83319 0.849609 5.37573 1.30707 5.37573 1.8715V4.05156C5.37573 4.61599 5.83319 5.07345 6.39762 5.07345C6.96205 5.07345 7.41951 4.61599 7.41951 4.05156V1.8715C7.41951 1.30707 6.96205 0.849609 6.39762 0.849609Z" fill="#333845"/>
<path d="M14.3002 0.849609C13.7358 0.849609 13.2783 1.30707 13.2783 1.8715V4.05156C13.2783 4.61599 13.7358 5.07345 14.3002 5.07345C14.8646 5.07345 15.3221 4.61599 15.3221 4.05156V1.8715C15.3221 1.30707 14.8646 0.849609 14.3002 0.849609Z" fill="#333845"/>
</g>
<defs>
<clipPath id="clip0_1_10415">
<rect width="28" height="28" fill="white" transform="translate(0.266357 0.849609)"/>
</clipPath>
</defs>
</svg>
