<svg width="19" height="19" viewBox="0 0 19 19" fill="none" xmlns="http://www.w3.org/2000/svg">
<g clip-path="url(#clip0_1_10309)">
<path d="M18.003 13.3807C17.9815 13.3344 17.9615 13.296 17.9429 13.2653C17.6351 12.7109 17.047 12.0306 16.1788 11.2239L16.1605 11.2054L16.1513 11.1964L16.142 11.1871H16.1327C15.7386 10.8115 15.4891 10.5589 15.3846 10.4296C15.1934 10.1833 15.1506 9.93399 15.2551 9.68137C15.3289 9.4905 15.6062 9.08742 16.0864 8.47157C16.3389 8.14519 16.5389 7.88361 16.6867 7.68653C17.752 6.27025 18.2138 5.36523 18.0721 4.97111L18.0171 4.87901C17.9801 4.82356 17.8847 4.77283 17.7309 4.72657C17.5768 4.68041 17.3799 4.67277 17.1397 4.70354L14.4797 4.72191C14.4366 4.70664 14.3751 4.70807 14.2949 4.72657C14.2149 4.74508 14.1748 4.75436 14.1748 4.75436L14.1285 4.77749L14.0918 4.80528C14.061 4.82365 14.0271 4.85597 13.9901 4.90217C13.9533 4.9482 13.9226 5.00223 13.898 5.06379C13.6084 5.80884 13.2791 6.50155 12.9096 7.14189C12.6818 7.52372 12.4725 7.85462 12.2814 8.13481C12.0906 8.41489 11.9305 8.62125 11.8013 8.75353C11.6719 8.88594 11.5551 8.99202 11.4502 9.07215C11.3455 9.15231 11.2656 9.18618 11.2102 9.17379C11.1547 9.1614 11.1025 9.14911 11.053 9.13682C10.9669 9.08137 10.8976 9.00596 10.8453 8.91053C10.7929 8.8151 10.7575 8.69498 10.7391 8.55028C10.7207 8.40548 10.7098 8.28093 10.7067 8.17622C10.7038 8.07163 10.7052 7.92369 10.7114 7.73283C10.7178 7.54186 10.7207 7.41266 10.7207 7.34492C10.7207 7.1109 10.7253 6.85692 10.7344 6.58291C10.7437 6.30891 10.7513 6.09181 10.7576 5.93187C10.7639 5.77177 10.7668 5.60238 10.7668 5.42381C10.7668 5.24524 10.7559 5.1052 10.7344 5.00355C10.7132 4.90204 10.6806 4.8035 10.6377 4.70797C10.5945 4.61254 10.5313 4.53872 10.4483 4.48631C10.3652 4.43397 10.2619 4.39243 10.139 4.36157C9.81257 4.28771 9.39697 4.24776 8.89196 4.24155C7.74673 4.22926 7.01087 4.30321 6.68452 4.46331C6.55522 4.53095 6.43821 4.62338 6.33359 4.74029C6.22272 4.8758 6.20726 4.94976 6.28729 4.96192C6.6568 5.01727 6.91838 5.14968 7.07233 5.35902L7.12781 5.46994C7.17097 5.54998 7.21406 5.69167 7.25718 5.89483C7.30024 6.09799 7.32803 6.32272 7.34025 6.56891C7.37099 7.01847 7.37099 7.40331 7.34025 7.72345C7.30942 8.04371 7.28031 8.29303 7.25252 8.4716C7.22473 8.65018 7.18319 8.79488 7.12781 8.90568C7.07233 9.01651 7.03542 9.08425 7.01692 9.10883C6.99844 9.13342 6.98305 9.14892 6.97082 9.155C6.89078 9.18567 6.80755 9.20129 6.7214 9.20129C6.63512 9.20129 6.5305 9.15814 6.40738 9.07189C6.28429 8.98565 6.15653 8.86718 6.02413 8.7163C5.89172 8.56539 5.74239 8.3545 5.57608 8.0836C5.4099 7.8127 5.23747 7.49253 5.0589 7.12309L4.91116 6.85517C4.8188 6.68281 4.69263 6.43184 4.53253 6.10248C4.37233 5.773 4.23074 5.45429 4.10765 5.14641C4.05844 5.01711 3.98452 4.91867 3.88602 4.85093L3.83979 4.82314C3.80906 4.79855 3.75972 4.77244 3.69205 4.74462C3.62427 4.71683 3.55356 4.69691 3.4796 4.68465L0.948895 4.70302C0.690289 4.70302 0.514822 4.76161 0.422431 4.87862L0.385455 4.93397C0.366983 4.9648 0.357666 5.01403 0.357666 5.08181C0.357666 5.14955 0.376138 5.23269 0.413114 5.33113C0.782551 6.1994 1.18431 7.03678 1.61838 7.8434C2.05245 8.65001 2.42965 9.29976 2.74976 9.79207C3.06992 10.2847 3.39627 10.7497 3.7288 11.1867C4.06132 11.624 4.28143 11.9041 4.38912 12.0272C4.49695 12.1505 4.58164 12.2427 4.6432 12.3043L4.87415 12.5259C5.02192 12.6737 5.23893 12.8508 5.52526 13.057C5.81165 13.2634 6.12871 13.4665 6.47661 13.6668C6.82456 13.8667 7.22936 14.0299 7.69122 14.1561C8.15302 14.2824 8.60249 14.3331 9.0397 14.3087H10.1019C10.3173 14.2901 10.4805 14.2223 10.5914 14.1054L10.6282 14.0591C10.6529 14.0224 10.676 13.9653 10.6974 13.8885C10.719 13.8115 10.7297 13.7267 10.7297 13.6345C10.7234 13.3698 10.7436 13.1312 10.7896 12.9188C10.8357 12.7064 10.8881 12.5463 10.9468 12.4385C11.0055 12.3308 11.0717 12.2399 11.1453 12.1662C11.2192 12.0923 11.2718 12.0476 11.3026 12.0322C11.3333 12.0167 11.3578 12.0062 11.3762 11.9999C11.524 11.9506 11.6979 11.9983 11.8982 12.1431C12.0984 12.2878 12.2861 12.4665 12.4617 12.6789C12.6372 12.8914 12.8481 13.1298 13.0943 13.3946C13.3407 13.6594 13.5562 13.8562 13.7408 13.9857L13.9255 14.0966C14.0488 14.1705 14.2089 14.2383 14.406 14.2998C14.6027 14.3613 14.7751 14.3767 14.9231 14.346L17.2874 14.3091C17.5213 14.3091 17.7033 14.2704 17.8323 14.1935C17.9617 14.1166 18.0385 14.0318 18.0633 13.9396C18.088 13.8472 18.0893 13.7425 18.068 13.6254C18.0461 13.5086 18.0245 13.4269 18.003 13.3807Z" fill="#EEEEEE"/>
</g>
<defs>
<clipPath id="clip0_1_10309">
<rect width="17.7394" height="17.7394" fill="white" transform="translate(0.357666 0.430664)"/>
</clipPath>
</defs>
</svg>
