<svg width="17" height="17" viewBox="0 0 17 17" fill="none" xmlns="http://www.w3.org/2000/svg">
<g clip-path="url(#clip0_1_10314)">
<path d="M8.27162 0.313477H8.26756C3.78457 0.313477 0.139038 3.96003 0.139038 8.44403C0.139038 10.2226 0.712242 11.8711 1.68689 13.2095L0.673622 16.23L3.7988 15.231C5.08445 16.0827 6.61807 16.5746 8.27162 16.5746C12.7546 16.5746 16.4001 12.927 16.4001 8.44403C16.4001 3.96105 12.7546 0.313477 8.27162 0.313477Z" fill="#EEEEEE"/>
<path d="M13.0026 11.7949C12.8065 12.3488 12.028 12.8081 11.407 12.9423C10.9822 13.0327 10.4273 13.1049 8.55928 12.3305C6.16991 11.3406 4.63121 8.91259 4.51128 8.75506C4.39644 8.59753 3.54578 7.46942 3.54578 6.30268C3.54578 5.13595 4.13829 4.56783 4.37713 4.32391C4.57327 4.1237 4.89748 4.03223 5.20847 4.03223C5.30909 4.03223 5.39954 4.03731 5.48085 4.04137C5.71968 4.05154 5.83961 4.06577 5.99714 4.44282C6.19329 4.91541 6.67096 6.08214 6.72787 6.20207C6.7858 6.32199 6.84373 6.4846 6.76243 6.64213C6.6862 6.80475 6.61913 6.8769 6.4992 7.01512C6.37927 7.15334 6.26545 7.25904 6.14552 7.40742C6.03576 7.53649 5.91177 7.67471 6.04999 7.91355C6.18821 8.1473 6.66588 8.92682 7.36917 9.55287C8.27674 10.3608 9.01256 10.619 9.27578 10.7288C9.47193 10.8101 9.70569 10.7907 9.84899 10.6383C10.0309 10.4422 10.2555 10.1169 10.4842 9.79679C10.6468 9.5671 10.8521 9.53864 11.0676 9.61995C11.2871 9.69617 12.4487 10.2704 12.6876 10.3893C12.9264 10.5092 13.0839 10.5661 13.1419 10.6668C13.1988 10.7674 13.1988 11.24 13.0026 11.7949Z" fill="#333C46"/>
</g>
<defs>
<clipPath id="clip0_1_10314">
<rect width="16.2611" height="16.2611" fill="white" transform="translate(0.139038 0.313477)"/>
</clipPath>
</defs>
</svg>
